# xmcd CD database file
#
# Track frame offsets:
#	150
#	29079
#	51204
#	68819
#	88536
#	125472
#	144276
#	167208
#	195373
#
# Disc length: 3131 seconds
#
# Revision: 2
# Processed by: cddbd v1.5.2PL0 Copyright (c) Steve Scherf et al.
# Submitted via: CDex 1.51
#
DISCID=790c3909
DTITLE=Dave Fiester and the Legendary Groove Monsters - I Gotta Cure for That
DYEAR=1900
DGENRE=Blues
TTITLE0=Built for Comfort
TTITLE1=Got My Mojo Workin'
TTITLE2=I Gotta Cure for That
TTITLE3=How Come It Is?
TTITLE4=Blues Man
TTITLE5=I Can Tell
TTITLE6=Back to the Chicken Shack
TTITLE7=Ain't Nobody's Business
TTITLE8=Prowler
EXTD=
EXTT0=
EXTT1=
EXTT2=
EXTT3=
EXTT4=
EXTT5=
EXTT6=
EXTT7=
EXTT8=
PLAYORDER=
